<?xml version="1.0" standalone="no"?>
<!DOCTYPE svg PUBLIC "-//W3C//DTD SVG 20010904//EN"
 "http://www.w3.org/TR/2001/REC-SVG-20010904/DTD/svg10.dtd">
<svg version="1.0" xmlns="http://www.w3.org/2000/svg"
 width="300.000000pt" height="300.000000pt" viewBox="0 0 300.000000 300.000000"
 preserveAspectRatio="xMidYMid meet">
<metadata>
Created by potrace 1.11, written by Peter Selinger 2001-2013
</metadata>
<g transform="translate(0.000000,300.000000) scale(0.100000,-0.100000)"
fill="#000000" stroke="none">
<path d="M1355 2983 c-229 -30 -437 -102 -626 -214 -30 -17 -61 -32 -69 -32
-32 0 -206 -165 -311 -297 -92 -114 -239 -358 -239 -395 0 -8 -4 -15 -8 -17
-12 -5 -71 -204 -87 -293 -26 -145 -5 -431 44 -619 66 -247 194 -464 397 -672
43 -44 93 -98 111 -120 25 -30 32 -35 33 -20 0 19 1 19 22 -1 27 -24 99 -70
112 -71 5 0 12 -5 15 -10 9 -13 204 -106 276 -131 77 -26 218 -59 292 -69 105
-13 352 -7 443 11 122 24 121 24 168 41 23 8 42 13 42 10 0 -2 9 0 21 6 11 6
28 13 38 15 18 3 208 94 246 118 225 137 426 349 550 581 33 62 103 230 110
266 2 8 4 15 6 15 1 0 3 9 5 20 2 11 8 40 14 65 7 25 14 54 16 65 25 119 25
430 0 530 -3 11 -12 52 -22 90 -9 39 -22 84 -29 102 -8 17 -10 33 -6 35 8 3
-19 64 -121 272 -106 218 -237 353 -465 482 -115 66 -276 144 -295 144 -8 0
-19 5 -26 12 -7 7 -12 9 -12 5 0 -4 -9 -3 -21 3 -11 7 -32 14 -47 16 -14 3
-30 8 -36 12 -6 3 -20 7 -31 8 -11 1 -56 10 -100 19 -76 16 -339 28 -410 18z"/>
</g>
</svg>
